<?xml version="1.0" encoding="UTF-8"?>
<svg width="187px" height="148px" viewBox="0 0 187 148" version="1.1" xmlns="http://www.w3.org/2000/svg" xmlns:xlink="http://www.w3.org/1999/xlink">
    <title>eyes</title>
    <g id="Page-1" stroke="none" stroke-width="1" fill="none" fill-rule="evenodd">
        <g id="Artboard" transform="translate(-863.000000, -241.000000)">
            <g id="eyes" transform="translate(863.883512, 241.782400)">
                <path d="M91.1811882,5.5226 L14.8861882,40.2336 C14.8861882,40.2336 7.18018817,79.1516 1.34818817,108.6026 C-4.48481183,138.0546 9.61518817,146.5296 24.3401882,146.5296 C52.7241882,146.5296 69.8171882,113.4306 75.6391882,84.0306 C82.4971882,49.3966 91.1811882,5.5226 91.1811882,5.5226" id="Fill-6" fill="#FFFFFF"></path>
                <path d="M76.8310882,48.1211 C75.0190882,57.2701 66.1340882,64.6871 56.9850882,64.6871 C47.8350882,64.6871 41.8870882,57.2701 43.6990882,48.1211 C45.5110882,38.9721 54.3960882,31.5551 63.5450882,31.5551 C72.6950882,31.5551 78.6430882,38.9721 76.8310882,48.1211" id="Fill-8" fill="#000000"></path>
                <path d="M123.335088,0 L185.883088,34.711 C185.883088,34.711 178.176088,73.629 172.344088,103.08 C166.512088,132.532 149.056088,141.007 134.330088,141.007 C105.947088,141.007 101.963088,107.908 107.785088,78.508 C114.643088,43.874 123.335088,0 123.335088,0" id="Fill-10" fill="#FFFFFF"></path>
                <path d="M120.814288,42.5985 C119.002288,51.7475 124.950288,59.1645 134.100288,59.1645 C143.249288,59.1645 152.134288,51.7475 153.946288,42.5985 C155.758288,33.4495 149.810288,26.0325 140.660288,26.0325 C131.511288,26.0325 122.626288,33.4495 120.814288,42.5985" id="Fill-12" fill="#000000"></path>
            </g>
        </g>
    </g>
</svg>