<?xml version="1.0" encoding="UTF-8"?>
<svg width="442px" height="395px" viewBox="0 0 442 395" version="1.1" xmlns="http://www.w3.org/2000/svg" xmlns:xlink="http://www.w3.org/1999/xlink">
    <title>hole</title>
    <defs>
        <polygon id="path-1" points="0 0 441.1497 0 441.1497 394.3088 0 394.3088"></polygon>
    </defs>
    <g id="Page-1" stroke="none" stroke-width="1" fill="none" fill-rule="evenodd">
        <g id="Artboard" transform="translate(-682.000000, -146.000000)">
            <g id="hole" transform="translate(682.000000, 146.000000)">
                <path d="M196.8264,77.0424 C161.9424,101.5004 135.7394,138.7204 127.6874,179.3764 L99.1434,323.5224 L119.0834,306.8794 L145.0914,175.5444 C150.8524,146.4464 164.1284,117.8144 183.4814,92.7454 C187.6724,87.3174 192.1324,82.0734 196.8264,77.0424 L196.8264,77.0424 Z M354.2364,347.4404 L357.4744,331.0864 L146.2614,331.0864 L126.6684,347.4404 L354.2364,347.4404 Z M10.9574,385.3084 L18.4564,347.4404 L55.5194,347.4404 L89.4934,175.8794 C98.3204,131.2984 123.9654,89.3984 161.7024,57.8984 C199.4794,26.3654 244.8874,9.0004 289.5584,9.0004 C299.3684,9.0004 309.0424,9.8554 318.3114,11.5424 C328.0164,13.2954 337.4764,16.0004 346.4174,19.5784 C355.2834,23.1424 363.7234,27.6104 371.5154,32.8644 C380.5714,38.9574 388.8074,46.1594 395.9894,54.2634 C400.8404,59.7174 405.2774,65.6754 409.1674,71.9604 C412.9104,77.9654 416.2474,84.4794 419.0714,91.2964 C423.7584,102.6944 426.9304,114.8334 428.5084,127.3954 C430.6344,144.1374 429.9314,161.6304 426.4174,179.3754 L393.1374,347.4404 L430.1924,347.4404 L422.6944,385.3084 L10.9574,385.3084 Z" id="Fill-1" fill="#000000"></path>
                <g id="Group-5">
                    <mask id="mask-2" fill="white">
                        <use xlink:href="#path-1"></use>
                    </mask>
                    <g id="Clip-4"></g>
                    <path d="M289.5587,0 C242.7827,0 195.3277,18.108 155.9357,50.989 C116.6227,83.804 89.8907,127.537 80.6637,174.131 L48.1267,338.441 L25.8487,338.441 L11.0637,338.441 L8.1917,352.944 L4.2567,372.812 L-0.0003,394.309 L21.9137,394.309 L49.9507,394.309 L78.0387,394.309 L415.3017,394.309 L430.0867,394.309 L432.9587,379.805 L436.8927,359.937 L441.1497,338.441 L419.2357,338.441 L404.0937,338.441 L435.2457,181.124 C438.9487,162.428 439.6847,143.965 437.4347,126.248 C435.7607,112.92 432.3847,100.008 427.4047,87.895 C424.3807,80.594 420.8217,73.647 416.8087,67.206 C412.6487,60.487 407.9027,54.117 402.7037,48.27 C395.0397,39.621 386.2277,31.916 376.5337,25.393 C368.2287,19.793 359.2247,15.026 349.7847,11.232 C340.2577,7.419 330.2107,4.546 319.9007,2.683 C310.1247,0.904 299.9077,0 289.5587,0 M101.8417,356.441 L361.6287,356.441 L368.4317,322.087 L142.9977,322.087 L122.4597,339.23 L101.8417,356.441 M85.3717,346.743 L127.2937,311.75 L153.9187,177.293 C165.3037,119.799 205.9207,69.322 257.2517,41.308 C191.2357,54.185 132.1697,110.411 118.8597,177.628 L85.3717,346.743 M289.5587,18 C298.9707,18 308.0347,18.82 316.7007,20.397 C325.9797,22.073 334.7887,24.619 343.0737,27.934 C351.4467,31.299 359.2657,35.459 366.4847,40.327 C374.9547,46.027 382.5857,52.707 389.2537,60.232 C393.8037,65.348 397.9027,70.862 401.5147,76.698 C405.0677,82.397 408.1447,88.432 410.7567,94.741 C415.0817,105.258 418.0797,116.583 419.5777,128.516 C421.5427,143.989 420.9797,160.504 417.5887,177.628 L382.1797,356.441 L419.2357,356.441 L415.3017,376.309 L78.0387,376.309 L49.9507,376.309 L21.9137,376.309 L25.8487,356.441 L62.9127,356.441 L98.3207,177.628 C115.7507,89.612 201.5427,18 289.5587,18" id="Fill-3" fill="#FFFFFF" mask="url(#mask-2)"></path>
                </g>
            </g>
        </g>
    </g>
</svg>